<svg width="20" height="20" viewBox="0 0 20 20" fill="none" xmlns="http://www.w3.org/2000/svg">
<path d="M7.46318 17.2279C7.96309 17.1222 11.0093 17.1222 11.5092 17.2279C11.9366 17.3266 12.3987 17.5573 12.3987 18.0608C12.3738 18.5402 12.0926 18.9653 11.704 19.2352C11.2001 19.628 10.6088 19.8767 9.99057 19.9664C9.64868 20.0107 9.31276 20.0117 8.98279 19.9664C8.36362 19.8767 7.77227 19.628 7.26938 19.2342C6.87978 18.9653 6.59852 18.5402 6.57367 18.0608C6.57367 17.5573 7.03582 17.3266 7.46318 17.2279ZM9.54522 0C11.6254 0 13.7502 0.987019 15.0125 2.62466C15.8314 3.67916 16.2071 4.73265 16.2071 6.3703V6.79633C16.2071 8.05226 16.539 8.79253 17.2695 9.64559C17.8231 10.2741 18 11.0808 18 11.956C18 12.8302 17.7128 13.6601 17.1373 14.3339C16.384 15.1417 15.3215 15.6573 14.2372 15.747C12.6659 15.8809 11.0937 15.9937 9.5005 15.9937C7.90634 15.9937 6.33505 15.9263 4.76375 15.747C3.67846 15.6573 2.61602 15.1417 1.86367 14.3339C1.28822 13.6601 1 12.8302 1 11.956C1 11.0808 1.1779 10.2741 1.73049 9.64559C2.48384 8.79253 2.79392 8.05226 2.79392 6.79633V6.3703C2.79392 4.68834 3.21333 3.58852 4.077 2.51186C5.36106 0.941697 7.41935 0 9.45577 0H9.54522Z" fill="black"/>
</svg>
